<?xml version="1.0" standalone="no"?>
<!DOCTYPE svg PUBLIC "-//W3C//DTD SVG 20010904//EN"
 "http://www.w3.org/TR/2001/REC-SVG-20010904/DTD/svg10.dtd">
<svg version="1.0" xmlns="http://www.w3.org/2000/svg"
 width="250.000000pt" height="300.000000pt" viewBox="0 0 250.000000 300.000000"
 preserveAspectRatio="xMidYMid meet">

<g transform="translate(0.000000,300.000000) scale(0.100000,-0.100000)"
fill="#000000" stroke="none">
<path d="M465 2970 c-12 -13 -19 -37 -19 -62 -1 -40 -3 -43 -38 -51 -31 -7
-38 -13 -38 -33 0 -28 11 -29 72 -8 37 12 55 13 85 5 21 -6 102 -11 180 -11
139 0 142 0 145 23 2 12 3 -272 3 -631 l0 -654 185 -70 c102 -38 192 -70 200
-70 8 -1 78 22 155 51 77 29 164 62 193 73 l52 19 0 630 0 629 148 0 c81 0
164 5 185 11 30 8 48 7 85 -5 61 -21 72 -20 72 8 0 20 -7 26 -37 33 -36 8 -38
11 -39 51 0 50 -26 82 -65 82 -31 0 -59 -23 -59 -48 0 -9 9 -32 21 -51 11 -18
17 -36 14 -39 -3 -3 -76 -4 -163 -1 -203 5 -913 5 -1109 0 -84 -3 -155 -2
-158 1 -3 3 3 21 14 39 12 19 21 42 21 51 0 45 -72 64 -105 28z m64 -24 c9
-11 7 -20 -12 -42 -24 -28 -24 -28 -31 -6 -7 22 8 62 23 62 5 0 14 -6 20 -14z
m1486 -17 c4 -10 2 -26 -3 -35 -8 -14 -12 -12 -31 11 -16 21 -18 31 -10 41 13
16 36 8 44 -17z m-608 -539 c84 -47 118 -146 89 -254 -45 -165 -171 -254 -318
-227 -54 10 -69 10 -101 -4 -41 -17 -72 -13 -81 10 -14 39 20 61 72 46 39 -12
37 -14 112 173 59 149 92 217 114 236 28 23 29 3 1 -34 -14 -19 -59 -116 -99
-215 l-73 -180 54 -11 c30 -7 71 -9 93 -5 158 27 271 259 190 391 -36 58 -83
79 -175 79 -65 0 -87 -4 -117 -23 -37 -23 -48 -40 -48 -73 0 -10 -4 -19 -10
-19 -5 0 -10 13 -10 29 0 34 54 87 98 97 15 3 32 8 37 10 28 11 136 -5 172
-26z"/>
<path d="M1015 1940 c-10 -16 15 -31 40 -24 37 12 35 19 -6 29 -17 4 -30 2
-34 -5z"/>
<path d="M279 1326 c-77 -27 -134 -90 -127 -138 5 -35 28 -34 28 0 0 90 155
153 302 123 180 -38 246 -227 147 -424 -81 -160 -210 -228 -374 -197 -54 10
-66 16 -62 29 3 9 41 104 85 211 86 213 132 309 156 329 18 15 22 41 7 41 -29
0 -104 -142 -176 -330 -77 -204 -102 -253 -122 -245 -10 4 -37 9 -59 12 -35 5
-44 2 -58 -18 -21 -30 -20 -35 4 -59 25 -25 55 -25 105 0 36 19 45 19 90 8
190 -46 342 32 434 222 34 70 36 81 36 170 0 86 -3 100 -29 148 -32 56 -70 91
-130 116 -47 20 -205 21 -257 2z m-150 -625 c11 -7 10 -11 -7 -20 -41 -22 -94
-9 -77 19 8 12 65 13 84 1z"/>
<path d="M1553 1174 c-7 -18 11 -39 26 -30 17 11 13 46 -4 46 -9 0 -18 -7 -22
-16z"/>
<path d="M1132 918 c-100 -118 -143 -157 -180 -164 -17 -4 -32 -5 -32 -3 0 2
14 31 30 63 46 90 38 176 -16 176 -70 0 -122 -166 -71 -229 24 -28 -77 -86
-112 -64 -23 14 -25 79 -5 132 10 25 39 69 66 98 57 60 48 81 -11 28 -52 -47
-101 -144 -101 -200 0 -90 68 -116 151 -59 30 20 58 29 87 30 52 2 84 25 172
127 59 67 68 74 95 70 59 -9 59 -9 24 -70 -17 -32 -40 -74 -50 -93 -35 -64
-17 -119 35 -106 13 3 68 52 121 108 l96 103 -21 -50 c-12 -27 -23 -72 -24
-100 -1 -47 1 -50 25 -53 19 -2 39 9 77 43 l52 47 0 -30 c0 -35 27 -62 64 -62
35 0 62 14 104 53 l32 31 0 -30 c0 -39 16 -54 57 -54 27 0 43 11 94 63 33 34
83 89 111 123 58 71 103 108 124 100 22 -8 11 -49 -42 -169 -24 -53 -44 -102
-44 -107 0 -27 23 -2 66 70 80 134 179 232 220 216 21 -8 18 -26 -27 -138 -42
-106 -44 -142 -10 -153 29 -9 67 10 114 57 60 60 90 105 76 113 -6 4 -18 -3
-27 -16 -33 -50 -120 -129 -140 -129 -31 0 -28 24 11 117 43 100 50 129 37
153 -24 45 -109 15 -173 -61 l-34 -39 5 48 c3 37 0 51 -13 62 -29 24 -79 -13
-195 -144 -59 -65 -119 -125 -135 -133 -26 -14 -30 -14 -42 3 -19 26 -9 62 48
176 27 54 49 102 49 108 0 5 -24 10 -53 10 -74 0 -145 -37 -205 -108 -99 -118
-192 -206 -203 -195 -15 15 9 89 62 195 70 140 54 134 -99 -40 -119 -135 -160
-171 -180 -158 -15 9 -3 43 45 128 53 91 54 121 5 126 -31 3 -33 5 -27 33 4
16 2 29 -3 29 -5 0 -41 -37 -80 -82z m-182 31 c14 -26 5 -71 -28 -131 -20 -38
-28 -46 -39 -37 -27 23 -12 131 24 171 21 23 30 23 43 -3z m880 15 c0 -3 -21
-47 -47 -97 -75 -146 -162 -216 -205 -165 -51 59 71 222 192 259 31 9 60 11
60 3z"/>
<path d="M503 306 c-36 -16 -67 -68 -58 -95 3 -10 15 -27 27 -37 l21 -19 -17
27 c-26 40 -17 78 24 106 30 21 43 23 90 18 130 -15 180 -18 180 -10 0 5 -21
10 -47 10 -27 0 -79 4 -118 8 -52 5 -78 3 -102 -8z"/>
<path d="M1420 275 c0 -38 -3 -45 -20 -45 -11 0 -20 -5 -20 -11 0 -6 9 -8 20
-4 19 6 20 2 20 -64 0 -58 4 -75 20 -91 25 -25 41 -25 73 0 22 17 26 18 37 5
19 -23 56 -18 79 11 l21 26 10 -26 c11 -29 40 -35 60 -11 11 13 15 12 37 -5
14 -11 36 -20 48 -20 23 0 75 35 75 51 0 5 -9 0 -20 -11 -48 -48 -134 -7 -111
52 16 42 66 52 81 16 10 -23 10 -23 7 2 -5 55 -107 26 -107 -31 0 -29 -18 -59
-36 -59 -8 0 -23 19 -34 43 -12 28 -19 35 -19 21 -1 -23 -35 -64 -54 -64 -18
0 -37 21 -37 41 0 29 39 68 73 72 l32 4 -36 1 c-38 2 -79 -29 -79 -59 0 -22
-43 -59 -68 -59 -29 0 -42 28 -42 94 l0 56 33 1 32 1 -27 11 c-25 10 -28 16
-28 54 0 24 -4 43 -10 43 -5 0 -10 -20 -10 -45z"/>
<path d="M1910 298 c0 -36 -19 -241 -25 -265 -3 -13 -1 -23 5 -23 5 0 10 18
10 40 0 22 5 40 10 40 6 0 10 -4 10 -10 0 -19 40 -50 64 -50 26 0 86 44 86 63
0 6 -12 -1 -27 -15 -39 -35 -62 -41 -89 -23 -34 22 -30 38 17 57 35 15 40 21
37 45 -4 38 -33 41 -69 7 l-29 -28 6 92 c4 51 4 92 0 92 -3 0 -6 -10 -6 -22z
m86 -133 c8 -20 -11 -41 -43 -50 -38 -9 -40 1 -8 35 32 34 43 37 51 15z"/>
<path d="M957 296 c-18 -19 -37 -100 -37 -160 0 -31 -6 -48 -21 -62 -20 -18
-21 -18 -34 0 -8 10 -17 38 -21 62 -8 53 -19 57 -29 8 -9 -49 -26 -85 -39 -81
-6 2 -16 28 -22 58 l-10 54 -17 -32 c-9 -18 -17 -38 -16 -45 0 -7 5 -2 12 11
11 23 11 22 22 -15 8 -28 17 -40 32 -42 18 -3 24 4 34 39 l13 42 17 -40 c22
-52 31 -57 61 -34 24 19 24 19 36 0 16 -25 53 -24 81 2 l23 21 14 -21 c21 -30
55 -26 89 9 35 37 26 40 -10 4 -28 -27 -52 -29 -68 -3 -8 12 -3 34 18 83 33
78 39 149 13 154 -26 5 -49 -51 -55 -136 -5 -62 -11 -80 -30 -100 -26 -26 -50
-26 -66 -1 -8 13 -4 33 18 80 43 96 38 190 -8 145z m33 -23 c0 -24 -42 -143
-51 -143 -8 0 0 85 13 128 10 34 38 45 38 15z m120 4 c0 -26 -30 -113 -45
-132 -14 -19 -15 -17 -9 30 8 72 23 115 40 115 8 0 14 -6 14 -13z"/>
<path d="M618 233 c-3 -44 -5 -48 -30 -51 -16 -2 -28 -7 -28 -12 0 -5 14 -7
31 -3 31 6 31 6 24 -28 -22 -102 -101 -153 -155 -99 -24 24 -25 43 -4 64 8 9
12 16 7 16 -16 0 -33 -24 -33 -45 0 -32 41 -65 81 -65 60 0 99 42 114 123 6
33 11 37 37 37 17 0 27 4 23 10 -3 6 -16 10 -28 10 -20 0 -22 4 -19 39 2 21
-1 42 -7 45 -6 4 -11 -11 -13 -41z"/>
<path d="M1331 201 c-10 -6 -12 -19 -7 -44 4 -21 2 -38 -4 -42 -5 -3 -10 -12
-10 -18 0 -7 8 -2 18 11 17 22 19 22 33 5 38 -43 30 -71 -22 -83 l-34 -8 32
-1 c32 -1 63 20 63 43 0 7 -11 29 -24 48 -17 26 -21 39 -14 53 13 22 -10 49
-31 36z m19 -26 c0 -8 -4 -15 -10 -15 -5 0 -10 7 -10 15 0 8 5 15 10 15 6 0
10 -7 10 -15z"/>
</g>
</svg>
